<svg width="21" height="20" viewBox="0 0 21 20" fill="none" xmlns="http://www.w3.org/2000/svg">
<path d="M7.66797 4.25827e-06L7.17578 2.52344C6.34778 2.83544 5.59264 3.2695 4.93164 3.81251L2.50781 2.97852L0.173828 7.02149L2.11328 8.70899C2.03628 9.17999 2 9.60201 2 10C2 10.395 2.03728 10.818 2.11328 11.293L0.173828 12.9805L2.50781 17.0215L4.92969 16.1875C5.59269 16.7315 6.34878 17.1665 7.17578 17.4785L7.66797 20H9V16.3809L8.92578 16L7.88281 15.6055C7.25981 15.3705 6.69422 15.0466 6.19922 14.6406L5.33594 13.9316L3.41406 14.5938L2.73047 13.4063L4.26562 12.0703L4.08789 10.9746C4.02889 10.6076 4 10.288 4 10C4 9.71 4.02889 9.39235 4.08789 9.02735L4.26562 7.92969L2.72851 6.59375L3.41406 5.40625L5.33398 6.06836L6.19922 5.35938C6.69222 4.95338 7.26076 4.62953 7.88476 4.39454L8.92578 4L9.3164 2.00001H10.6855L11.0742 4L12.1172 4.39454C12.7402 4.62954 13.3077 4.95338 13.8027 5.35938L14.666 6.06836L16.5859 5.40625L17.2715 6.59375L15.7363 7.92774L15.9121 9.02539V9.0293C15.9711 9.3933 16 9.71 16 10C16 10.29 15.9711 10.6077 15.9121 10.9727L15.7344 12.0703L16.8027 13H19.8144L19.8262 12.9785L17.8867 11.291C17.9627 10.82 18 10.398 18 10C18 9.602 17.9637 9.17903 17.8867 8.70703L19.8262 7.01953L17.4922 2.97852L15.0703 3.8125C14.4073 3.2685 13.6512 2.83348 12.8242 2.52148L12.332 0L7.66797 4.25827e-06ZM10 6C7.80348 6 6 7.80348 6 10C6 12.1965 7.80348 14 10 14C12.1965 14 14 12.1965 14 10C14 7.80348 12.1965 6 10 6ZM10 8.00001C11.1115 8.00001 12 8.88853 12 10C12 11.1115 11.1115 12 10 12C8.88852 12 8 11.1115 8 10C8 8.88853 8.88852 8.00001 10 8.00001ZM12.3457 15L11 20H12.0527L12.3105 19H13.6777L13.9375 20H15L13.6465 15H12.3457ZM16 15V20H17V18H17.5C18.328 18 19 17.328 19 16.5C19 15.672 18.328 15 17.5 15H16ZM20 15V20H21V15H20ZM17 16H17.5C17.776 16 18 16.224 18 16.5C18 16.776 17.776 17 17.5 17H17V16ZM12.9922 16.3535L13.4199 18H12.5684L12.9922 16.3535Z" fill="#637381"/>
</svg>
