<svg width="22" height="24" viewBox="0 0 22 24" fill="none" xmlns="http://www.w3.org/2000/svg">
<path d="M15.9836 0.986328C15.4321 0.994949 14.9917 1.44847 14.9993 2V3.12305C14.2381 3.30106 13.592 3.67691 13.1086 4.17773L12.1692 3.63476C11.9963 3.5311 11.7962 3.48208 11.595 3.49414C11.1522 3.52176 10.7805 3.8378 10.682 4.27039C10.5836 4.70299 10.7819 5.14873 11.1692 5.36523L12.1477 5.92969C12.058 6.28156 11.9992 6.64012 11.9992 7C11.9992 7.35988 12.058 7.71844 12.1477 8.07031L11.1692 8.63476C10.8446 8.80554 10.6395 9.14028 10.6348 9.50701C10.6302 9.87373 10.8266 10.2136 11.1466 10.3927C11.4667 10.5717 11.8591 10.5612 12.1692 10.3652L13.1086 9.82226C13.592 10.3231 14.2381 10.6989 14.9993 10.877V12C14.9942 12.3606 15.1836 12.6961 15.4951 12.8779C15.8066 13.0597 16.1919 13.0597 16.5034 12.8779C16.8149 12.6961 17.0044 12.3606 16.9993 12V10.877C17.7604 10.6989 18.4065 10.3231 18.8899 9.82226L19.8293 10.3652C20.1394 10.5612 20.5318 10.5717 20.8519 10.3927C21.1719 10.2136 21.3684 9.87373 21.3637 9.50701C21.359 9.14028 21.1539 8.80554 20.8293 8.63476L19.8508 8.07031C19.9405 7.71844 19.9993 7.35988 19.9993 7C19.9993 6.64012 19.9405 6.28156 19.8508 5.92969L20.8293 5.36523C21.2199 5.14548 21.4166 4.69273 21.3107 4.25727C21.2048 3.8218 20.8221 3.50996 20.3743 3.49414C20.1829 3.48789 19.9938 3.5367 19.8293 3.63476L18.8899 4.17773C18.4065 3.67691 17.7604 3.30105 16.9993 3.12305V2C17.003 1.7297 16.8971 1.46941 16.7057 1.27845C16.5144 1.08748 16.2539 0.982107 15.9836 0.986328ZM15.9016 5.00781C15.9678 5.01444 16.0346 5.01444 16.1008 5.00781C16.7837 5.03086 17.2004 5.26312 17.5012 5.60156C17.5317 5.63592 17.5553 5.67767 17.5832 5.71484C17.6232 5.91355 17.7227 6.09541 17.8684 6.23633C17.8684 6.23698 17.8684 6.23763 17.8684 6.23828C17.9529 6.4769 17.9993 6.73676 17.9993 7C17.9993 7.28886 17.9402 7.57101 17.8391 7.82812C17.736 7.94351 17.6612 8.08124 17.6203 8.23047C17.581 8.28702 17.5462 8.34784 17.5012 8.39844C17.1995 8.73791 16.7816 8.97037 16.095 8.99219C16.058 8.98816 16.0208 8.98621 15.9836 8.98633C15.9549 8.98705 15.9262 8.989 15.8977 8.99219C15.2148 8.96914 14.7981 8.73688 14.4973 8.39844C14.4505 8.34584 14.413 8.28363 14.3723 8.22461C14.3322 8.0818 14.2608 7.9497 14.1633 7.83789C14.0597 7.57821 13.9993 7.29257 13.9993 7C13.9993 6.73676 14.0456 6.4769 14.1301 6.23828C14.1301 6.23763 14.1301 6.23698 14.1301 6.23633C14.2758 6.09541 14.3753 5.91355 14.4153 5.71484C14.4433 5.67768 14.4668 5.63592 14.4973 5.60156C14.7988 5.26243 15.2163 5.03004 15.9016 5.00781L15.9016 5.00781ZM6.98363 8.98633C6.43211 8.99495 5.9917 9.44847 5.99925 10V11.0937C4.86317 11.2982 3.91445 11.8398 3.2512 12.5859C3.23232 12.6072 3.22081 12.6328 3.20238 12.6543L2.30394 12.1348C2.13108 12.0311 1.93092 11.9821 1.72972 11.9941C1.28693 12.0218 0.915255 12.3378 0.816814 12.7704C0.718374 13.203 0.916697 13.6487 1.30394 13.8652L2.24925 14.4121C2.09062 14.9288 1.99925 15.4638 1.99925 16C1.99925 16.5362 2.09062 17.0712 2.24925 17.5879L1.30394 18.1348C0.97937 18.3055 0.774313 18.6403 0.769614 19.007C0.764914 19.3737 0.961325 19.7136 1.28141 19.8927C1.6015 20.0717 1.99391 20.0612 2.30394 19.8652L3.20238 19.3457C3.22082 19.3672 3.23233 19.3928 3.25121 19.4141C3.91445 20.1602 4.86317 20.7018 5.99925 20.9062V22C5.99415 22.3606 6.18363 22.6961 6.49513 22.8779C6.80662 23.0597 7.19188 23.0597 7.50338 22.8779C7.81488 22.6961 8.00435 22.3606 7.99925 22V20.9062C9.13534 20.7018 10.0841 20.1602 10.7473 19.4141C10.7662 19.3928 10.7777 19.3672 10.7961 19.3457L11.6946 19.8652C12.0046 20.0612 12.397 20.0717 12.7171 19.8927C13.0372 19.7136 13.2336 19.3737 13.2289 19.007C13.2242 18.6403 13.0191 18.3055 12.6946 18.1348L11.7493 17.5879C11.9079 17.0712 11.9993 16.5362 11.9993 16C11.9993 15.4638 11.9079 14.9288 11.7493 14.4121L12.6946 13.8652C13.0851 13.6455 13.2819 13.1927 13.1759 12.7573C13.07 12.3218 12.6874 12.01 12.2395 11.9941C12.0481 11.9879 11.859 12.0367 11.6946 12.1348L10.7961 12.6543C10.7777 12.6328 10.7662 12.6072 10.7473 12.5859C10.0841 11.8398 9.13534 11.2982 7.99925 11.0937V10C8.00296 9.7297 7.89708 9.46941 7.70574 9.27845C7.51441 9.08748 7.25392 8.98211 6.98363 8.98633H6.98363ZM6.90355 13.0078C6.96779 13.0147 7.03254 13.0154 7.09691 13.0098C8.11927 13.0332 8.78377 13.3882 9.25121 13.9141C9.32428 13.9963 9.38164 14.092 9.44456 14.1836C9.48123 14.4027 9.58981 14.6033 9.75316 14.7539C9.90915 15.1427 9.99925 15.5672 9.99925 16C9.99925 16.4558 9.89838 16.9017 9.72581 17.3066C9.60337 17.4361 9.51774 17.5959 9.47777 17.7695C9.40605 17.8787 9.33694 17.9895 9.25121 18.0859C8.78311 18.6125 8.11785 18.9697 7.093 18.9922C7.05668 18.9882 7.02017 18.9863 6.98363 18.9863C6.95624 18.9865 6.92888 18.9878 6.9016 18.9902C5.87924 18.9668 5.21474 18.6118 4.7473 18.0859C4.66037 17.9881 4.58935 17.8765 4.51683 17.7656C4.47719 17.597 4.3944 17.4415 4.2766 17.3144C4.1018 16.9075 3.99925 16.4589 3.99925 16C3.99925 15.5687 4.08846 15.1455 4.24339 14.7578C4.40861 14.606 4.51798 14.4031 4.55394 14.1816C4.61661 14.0905 4.67457 13.9959 4.7473 13.9141C5.21508 13.3878 5.87989 13.0308 6.90355 13.0078L6.90355 13.0078ZM6.99925 15C6.44697 15 5.99925 15.4477 5.99925 16C5.99925 16.5523 6.44697 17 6.99925 17C7.55154 17 7.99925 16.5523 7.99925 16C7.99925 15.4477 7.55154 15 6.99925 15Z" fill="#637381"/>
</svg>
