<svg width="18" height="18" viewBox="0 0 18 18" fill="none" xmlns="http://www.w3.org/2000/svg">
<path d="M2 0C0.894999 0 0 0.895 0 2V5V6V16C0 17.0931 0.906937 18 2 18H16C17.0931 18 18 17.0931 18 16V6V5V2C18 0.894999 17.105 0 16 0H2ZM3 2C3.552 2 4 2.448 4 3C4 3.552 3.552 4 3 4C2.448 4 2 3.552 2 3C2 2.448 2.448 2 3 2V2ZM6 2C6.552 2 7 2.448 7 3C7 3.552 6.552 4 6 4C5.448 4 5 3.552 5 3C5 2.448 5.448 2 6 2V2ZM10 2H15C15.552 2 16 2.448 16 3C16 3.552 15.552 4 15 4H10C9.448 4 9 3.552 9 3C9 2.448 9.448 2 10 2V2ZM2 6H16V16H2V6Z" fill="#637381"/>
</svg>
