<svg width="16" height="16" viewBox="0 0 17 18" fill="none" xmlns="http://www.w3.org/2000/svg">
<path d="M8.74917 17.3333H8.66583C7.52294 17.3246 6.39327 17.088 5.34297 16.6372C4.29267 16.1865 3.34287 15.5307 2.54917 14.7083C1.07737 13.1344 0.240735 11.0711 0.200723 8.91661C0.160711 6.76211 0.920159 4.66916 2.3325 3.04167C3.2424 2.02196 4.38628 1.2384 5.66583 0.758337C5.81514 0.700886 5.97782 0.687623 6.13445 0.720132C6.29109 0.752642 6.43506 0.829549 6.54917 0.94167C6.65485 1.04944 6.72927 1.18389 6.7645 1.33066C6.79972 1.47743 6.79443 1.63101 6.74917 1.775C6.29246 3.02578 6.20198 4.38088 6.48833 5.68127C6.77468 6.98167 7.426 8.17342 8.36583 9.11667C9.31444 10.0536 10.509 10.7027 11.8113 10.9888C13.1135 11.275 14.4702 11.1864 15.7242 10.7333C15.8734 10.6808 16.0346 10.6718 16.1887 10.7075C16.3429 10.7432 16.4837 10.822 16.5947 10.9348C16.7057 11.0475 16.7823 11.1896 16.8156 11.3443C16.8488 11.499 16.8374 11.6599 16.7825 11.8083C16.3568 12.9448 15.6918 13.9764 14.8325 14.8333C14.0332 15.6303 13.0843 16.2614 12.0403 16.6904C10.9963 17.1194 9.87786 17.3379 8.74917 17.3333Z" fill="#212B36"/>
</svg>
